<svg xmlns="http://www.w3.org/2000/svg" xmlns:xlink="http://www.w3.org/1999/xlink" viewBox="0 0 55.3 103"><defs><style>.cls-1{isolation:isolate;}.cls-2{fill:url(#未命名的渐变_24);}.cls-3{fill:url(#未命名的渐变_27);}.cls-4{fill:url(#未命名的渐变_22);}.cls-5{fill:#4374ed;}.cls-6{fill:url(#未命名的渐变_29);}.cls-7{fill:aqua;}.cls-8{fill:#37ef44;}</style><linearGradient id="未命名的渐变_24" x1="-523.01" y1="27.33" x2="-518.87" y2="9.79" gradientTransform="matrix(-1, 0, 0, 1, -492.71, 0)" gradientUnits="userSpaceOnUse"><stop offset="0" stop-color="#2f57cc"/><stop offset="1" stop-color="#0f2b5a"/></linearGradient><linearGradient id="未命名的渐变_27" x1="-508.99" y1="30.56" x2="-507.88" y2="84.7" gradientTransform="matrix(-1, 0, 0, 1, -492.71, 0)" gradientUnits="userSpaceOnUse"><stop offset="0" stop-color="#4182eb" stop-opacity="0"/><stop offset="1" stop-color="#4182eb"/></linearGradient><linearGradient id="未命名的渐变_22" x1="-535.43" y1="54.88" x2="-538.46" y2="83.88" gradientTransform="matrix(-1, 0, 0, 1, -492.71, 0)" gradientUnits="userSpaceOnUse"><stop offset="0" stop-color="#345add"/><stop offset="1" stop-color="#0e1e70"/></linearGradient><linearGradient id="未命名的渐变_29" x1="-519.97" y1="54.39" x2="-496.88" y2="54.39" gradientTransform="matrix(-1, 0, 0, 1, -492.71, 0)" gradientUnits="userSpaceOnUse"><stop offset="0" stop-color="#d3cf31" stop-opacity="0"/><stop offset="1" stop-color="#d3cf31"/></linearGradient></defs><title>苏州机柜</title><g id="图层_1" data-name="图层 1"><g class="cls-1"><polygon class="cls-2" points="0.01 13.59 31.34 31.8 55.21 18.29 23.88 0.08 0.01 13.59"/><polygon class="cls-3" points="0.01 13.59 0.09 84.71 31.42 102.92 31.34 31.8 0.01 13.59"/><polygon class="cls-4" points="31.34 31.8 31.42 102.92 55.29 89.19 55.21 18.29 31.34 31.8"/></g><g class="cls-1"><path class="cls-5" d="M23.87,1.23,53.2,18.28,31.35,30.65,2,13.6,23.87,1.23m0-1.15L0,13.59,31.34,31.8,55.21,18.29,23.88.08Z"/><path class="cls-5" d="M1,15.33,30.34,32.38l.08,68.8-29.33-17L1,15.33M0,13.59.09,84.71l31.33,18.21L31.34,31.8,0,13.59Z"/><path class="cls-5" d="M54.21,20l.08,68.61L32.42,101.19l-.08-68.81L54.21,20m1-1.71L31.34,31.8l.08,71.12L55.29,89.19l-.08-70.9Z"/></g><polygon class="cls-6" points="4.17 43.49 4.25 52.09 27.26 65.29 27.18 56.69 4.17 43.49"/><g class="cls-1"><ellipse class="cls-7" cx="49.09" cy="82.15" rx="1.54" ry="0.89" transform="translate(-46.6 83.32) rotate(-59.84)"/></g><g class="cls-1"><ellipse class="cls-7" cx="46.32" cy="83.76" rx="1.54" ry="0.89" transform="translate(-49.37 81.72) rotate(-59.84)"/></g><g class="cls-1"><ellipse class="cls-7" cx="37.65" cy="88.71" rx="1.54" ry="0.89" transform="translate(-57.97 76.69) rotate(-59.84)"/></g></g><g id="图层_2" data-name="图层 2"><polygon class="cls-8" points="36.56 39.61 36.66 48.32 50.08 40.24 49.98 31.54 36.56 39.61"/><polygon class="cls-8" points="36.56 81.41 36.66 85.39 50.23 77.54 50.14 73.21 36.56 81.41"/></g></svg>